<svg width="25" height="24" viewBox="0 0 25 24" fill="none" xmlns="http://www.w3.org/2000/svg">
<path d="M14.5 12C14.5 12 13.6046 11 12.5 11C11.3954 11 10.5 12 10.5 12" stroke="#717781" stroke-linecap="round"/>
<path d="M21.5 12H22.5" stroke="#717781" stroke-linecap="round"/>
<path d="M2.5 12H3.5" stroke="#717781" stroke-linecap="round"/>
<path fill-rule="evenodd" clip-rule="evenodd" d="M7.5 15C9.15685 15 10.5 13.6569 10.5 12C10.5 10.3431 9.15685 9 7.5 9C5.84315 9 4.5 10.3431 4.5 12C4.5 13.6569 5.84315 15 7.5 15Z" stroke="#717781"/>
<path fill-rule="evenodd" clip-rule="evenodd" d="M17.5 15C19.1569 15 20.5 13.6569 20.5 12C20.5 10.3431 19.1569 9 17.5 9C15.8431 9 14.5 10.3431 14.5 12C14.5 13.6569 15.8431 15 17.5 15Z" stroke="#717781"/>
</svg>
