<svg width="25" height="24" viewBox="0 0 25 24" fill="none" xmlns="http://www.w3.org/2000/svg">
<mask id="path-1-inside-1_340_1721" fill="white">
<path fill-rule="evenodd" clip-rule="evenodd" d="M18.0148 5C18.0148 3.34315 16.6716 2 15.0148 2H9.48535C7.8285 2 6.48535 3.34315 6.48535 5V7.40687C6.48535 7.9373 6.69607 8.44601 7.07114 8.82108L10.2501 12L7.07114 15.1789C6.69607 15.554 6.48535 16.0627 6.48535 16.5931V19C6.48535 20.6569 7.8285 22 9.48535 22H15.0148C16.6716 22 18.0148 20.6569 18.0148 19V16.5931C18.0148 16.0627 17.804 15.554 17.429 15.1789L14.2501 12L17.429 8.82108C17.804 8.44601 18.0148 7.9373 18.0148 7.40687V5Z"/>
</mask>
<path fill-rule="evenodd" clip-rule="evenodd" d="M18.0148 5C18.0148 3.34315 16.6716 2 15.0148 2H9.48535C7.8285 2 6.48535 3.34315 6.48535 5V7.40687C6.48535 7.9373 6.69607 8.44601 7.07114 8.82108L10.2501 12L7.07114 15.1789C6.69607 15.554 6.48535 16.0627 6.48535 16.5931V19C6.48535 20.6569 7.8285 22 9.48535 22H15.0148C16.6716 22 18.0148 20.6569 18.0148 19V16.5931C18.0148 16.0627 17.804 15.554 17.429 15.1789L14.2501 12L17.429 8.82108C17.804 8.44601 18.0148 7.9373 18.0148 7.40687V5Z" fill="#B7D2FF"/>
<path d="M7.07114 8.82108L7.77824 8.11397L7.77824 8.11397L7.07114 8.82108ZM10.2501 12L10.9572 12.7071C11.1447 12.5196 11.2501 12.2652 11.2501 12C11.2501 11.7348 11.1447 11.4804 10.9572 11.2929L10.2501 12ZM7.07114 15.1789L6.36403 14.4718L6.36403 14.4718L7.07114 15.1789ZM14.2501 12L13.543 11.2929C13.1524 11.6834 13.1524 12.3166 13.543 12.7071L14.2501 12ZM17.429 8.82108L16.7219 8.11397L16.7219 8.11397L17.429 8.82108ZM15.0148 3C16.1193 3 17.0148 3.89543 17.0148 5H19.0148C19.0148 2.79086 17.2239 1 15.0148 1V3ZM9.48535 3H15.0148V1H9.48535V3ZM7.48535 5C7.48535 3.89543 8.38078 3 9.48535 3V1C7.27621 1 5.48535 2.79086 5.48535 5H7.48535ZM7.48535 7.40687V5H5.48535V7.40687H7.48535ZM7.77824 8.11397C7.59071 7.92644 7.48535 7.67208 7.48535 7.40687H5.48535C5.48535 8.20252 5.80142 8.96558 6.36403 9.52819L7.77824 8.11397ZM10.9572 11.2929L7.77824 8.11397L6.36403 9.52819L9.54295 12.7071L10.9572 11.2929ZM7.77824 15.886L10.9572 12.7071L9.54295 11.2929L6.36403 14.4718L7.77824 15.886ZM7.48535 16.5931C7.48535 16.3279 7.59071 16.0736 7.77825 15.886L6.36403 14.4718C5.80142 15.0344 5.48535 15.7975 5.48535 16.5931H7.48535ZM7.48535 19V16.5931H5.48535V19H7.48535ZM9.48535 21C8.38078 21 7.48535 20.1046 7.48535 19H5.48535C5.48535 21.2091 7.27621 23 9.48535 23V21ZM15.0148 21H9.48535V23H15.0148V21ZM17.0148 19C17.0148 20.1046 16.1193 21 15.0148 21V23C17.2239 23 19.0148 21.2091 19.0148 19H17.0148ZM17.0148 16.5931V19H19.0148V16.5931H17.0148ZM16.7219 15.886C16.9094 16.0736 17.0148 16.3279 17.0148 16.5931H19.0148C19.0148 15.7975 18.6987 15.0344 18.1361 14.4718L16.7219 15.886ZM13.543 12.7071L16.7219 15.886L18.1361 14.4718L14.9572 11.2929L13.543 12.7071ZM16.7219 8.11397L13.543 11.2929L14.9572 12.7071L18.1361 9.52819L16.7219 8.11397ZM17.0148 7.40687C17.0148 7.67208 16.9094 7.92644 16.7219 8.11397L18.1361 9.52819C18.6987 8.96558 19.0148 8.20251 19.0148 7.40687H17.0148ZM17.0148 5V7.40687H19.0148V5H17.0148Z" fill="#17356D" mask="url(#path-1-inside-1_340_1721)"/>
</svg>
