<svg width="28" height="26" viewBox="0 0 28 26" fill="none" xmlns="http://www.w3.org/2000/svg">
<path d="M16.6552 6.6167C18.2481 7.47206 19.3691 9.09455 19.5757 10.953H17.8353C17.7468 9.2421 17.3042 7.70826 16.6552 6.6167Z" fill="#2659B5"/>
<path d="M8.42499 12.1329H10.1654C10.2538 13.8439 10.6668 15.3779 11.3452 16.4693C9.75238 15.6137 8.63132 14.0209 8.42493 12.1329H8.42499Z" fill="#2659B5"/>
<path d="M16.655 16.4987C17.3039 15.4073 17.7464 13.8733 17.8348 12.1624H19.5752C19.369 14.0208 18.248 15.6137 16.6549 16.4987H16.655Z" fill="#2659B5"/>
<path d="M8.42478 10.953C8.63137 9.0651 9.75217 7.47227 11.3452 6.6167C10.6962 7.7081 10.2538 9.2421 10.1654 10.953H8.42478Z" fill="#2659B5"/>
<path d="M14.59 6.08569C15.711 6.64622 16.5073 8.82898 16.6255 10.9529H14.59V6.08569Z" fill="#2659B5"/>
<path d="M13.4102 17.0001C12.2891 16.4396 11.4928 14.2569 11.3747 12.1329H13.4102V17.0001Z" fill="#2659B5"/>
<path d="M13.4102 6.08569V10.9529H11.3747C11.4926 8.82898 12.2891 6.67562 13.4102 6.08569Z" fill="#2659B5"/>
<path d="M14.59 17.0001V12.1329H16.6255C16.5076 14.2863 15.7405 16.4397 14.59 17.0001Z" fill="#2659B5"/>
<path d="M3.97055 15.1418C4.26562 15.0239 4.61952 15.1418 4.73746 15.4663C5.15044 16.4104 5.71093 17.3248 6.38935 18.1211C6.47783 18.2096 6.53688 18.3571 6.53688 18.475C6.59594 20.2744 6.33029 22.0148 5.76997 23.7258L6.06504 23.6964C7.62848 23.5488 9.01492 22.6344 9.75239 21.248C9.89993 20.9825 10.1948 20.8644 10.4899 20.9529C11.6401 21.3661 12.8202 21.5727 14.0001 21.5727C19.3689 21.5727 23.7642 17.3248 24.0297 12.0151L23.0856 13.1949C22.879 13.4604 22.5251 13.49 22.2596 13.2834C22.1121 13.1655 22.0236 12.9883 22.0236 12.8114C22.0236 12.6935 22.0531 12.5459 22.1415 12.4574L24.0887 10.0092C24.2066 9.8913 24.3542 9.80261 24.5311 9.80261C24.7081 9.80261 24.8556 9.86167 24.9735 9.97957L27.1565 12.2214C27.3925 12.4575 27.3925 12.841 27.1565 13.0474C26.9205 13.2834 26.5369 13.2834 26.3305 13.0474L25.2095 11.8969C25.0325 17.9147 20.0767 22.782 13.9999 22.782C12.8201 22.782 11.6696 22.6051 10.5486 22.2511C9.57512 23.7555 7.98223 24.729 6.1828 24.9059L4.94385 25.0238H4.88479C4.70783 25.0238 4.53087 24.9354 4.41277 24.7878C4.29486 24.6403 4.26523 24.4043 4.32429 24.2273L4.56051 23.6966C5.15043 22.1038 5.41587 20.4223 5.38647 18.7409C4.67845 17.8856 4.08847 16.9415 3.67554 15.9386C3.55764 15.6139 3.67554 15.26 3.97062 15.1419L3.97055 15.1418Z" fill="#2659B5"/>
<path d="M0.843809 10.068C1.07983 9.83198 1.46339 9.83198 1.66978 10.068L2.79078 11.2184C2.96775 5.20068 7.92364 0.333374 14.0003 0.333374C18.5137 0.333374 22.5845 3.01782 24.3249 7.17711C24.4429 7.47218 24.3249 7.82608 24.0004 7.94403C23.7054 8.06193 23.3515 7.94402 23.2335 7.61953C21.6701 3.93196 18.0416 1.51327 14.0004 1.51327C8.6316 1.51327 4.23627 5.76115 3.97078 11.0709L4.91485 9.89104C5.12144 9.6256 5.47538 9.59597 5.74082 9.80256C5.88836 9.92047 5.97684 10.0976 5.97684 10.2746C5.97684 10.3925 5.94741 10.54 5.85893 10.6285L3.91195 13.0769C3.79405 13.1948 3.64651 13.2835 3.46955 13.2835H3.44013C3.29259 13.2835 3.11563 13.2245 3.02716 13.1065L0.844189 10.8647C0.607965 10.6579 0.607965 10.2743 0.843777 10.0677L0.843809 10.068Z" fill="#2659B5"/>
</svg>
