<svg width="32" height="26" viewBox="0 0 32 26" fill="none" xmlns="http://www.w3.org/2000/svg">
<path d="M3.07871 0.211304C3.07871 0.211304 5.58915 0.605975 6.32863 1.66196C6.81392 2.35497 6.94841 2.8767 6.9214 4.00313C6.91309 4.33476 7.02969 4.65752 7.24856 4.90909C8.15787 5.90347 9.11704 6.85237 10.1225 7.75222C10.0687 6.24397 10.399 4.40732 11.67 3.54155C12.1633 3.20558 12.8783 2.78983 12.8783 2.78983C12.8783 2.78983 13.1291 3.62439 13.2543 4.16124C13.4644 5.06237 13.1713 6.04214 12.6482 6.81264C12.183 7.49795 11.3349 7.86701 10.5564 8.1504C10.9645 8.53767 11.5352 9.0811 11.9188 9.4922C13.4911 11.1705 14.6688 13.1708 15.3679 15.3506C15.3936 15.4315 15.4187 15.5127 15.4431 15.5941C15.689 14.3967 16.1079 13.2405 16.687 12.1609C15.8019 12.0981 15.0327 11.6028 14.405 10.9735C13.4227 9.9887 13.5711 8.01515 13.5711 8.01515C13.5711 8.01515 15.9348 8.03767 16.58 9.08032C16.9926 9.74693 16.955 11.0135 16.8979 11.7819C17.3766 11.046 18.9075 9.30837 18.8698 9.13742C18.5996 7.9177 18.6866 6.77661 19.897 5.64504C20.429 5.17477 20.9954 4.74424 21.5917 4.35681C21.5917 4.35681 22.3486 6.9434 21.8017 8.07629C21.5887 8.53417 21.2309 8.91131 20.7821 9.15097C20.3333 9.39044 19.8177 9.47954 19.313 9.40443C18.5625 10.1984 17.8818 11.054 17.2784 11.9622C19.3562 11.4277 21.8438 11.6599 21.8438 11.6599C21.8438 11.6599 20.2848 13.419 19 13.2109C18.1565 13.0743 17.5121 13.0337 17.0196 12.3531C16.3656 13.6046 15.7248 15.1082 15.7338 16.5238C15.7406 17.6158 16.0094 18.267 16.057 19.1102C16.0086 19.4748 16.1896 17.3672 16.057 17.7109C16.0041 14.9919 16.057 16.2109 15.7338 17.5684C16.057 16.2109 15.5026 17.2342 15.5 17.2109C15.4191 16.4362 15.326 16.822 15.0809 15.9515C14.1494 14.1821 10.5271 12.2364 9.13621 12.3536C8.00362 12.6311 7.13841 13.4816 6.06039 13.0823C5.00337 12.6911 4.30475 10.5126 4.30475 10.5126C4.75908 10.3738 5.23166 10.3029 5.7072 10.3015C7.42294 10.2878 8.06227 10.3996 8.98676 11.5694C9.15807 11.7825 9.41423 11.913 9.68958 11.9268C11.1637 11.9878 13.5641 13.5796 14.6267 14.5906C14.3764 13.9469 14.0813 13.3213 13.7436 12.7181C13.1904 11.7324 12.5255 10.8121 11.7617 9.97481C11.2799 9.44583 10.7674 8.94616 10.2453 8.45609C9.78982 9.40062 8.76878 9.95179 7.73615 10.0406C6.46532 10.1498 5.25635 9.53188 4.29247 8.77131C4.1674 8.67256 4.2371 8.50176 4.33757 8.42537C5.73168 7.36551 8.33543 7.63264 10.001 8.12767C9.04034 7.24181 7.40519 5.74549 6.54553 4.76041C6.06903 4.21439 4.3515 4.3223 3.64392 3.49404C2.689 2.37613 3.07871 0.211304 3.07871 0.211304Z" fill="url(#paint0_linear_198_580)"/>
<path fill-rule="evenodd" clip-rule="evenodd" d="M3.35194 13.5742C6.08885 15.4557 8.17176 16.5657 9.71735 16.967C9.45111 17.0971 9.31899 17.2471 9.26201 17.4724C9.15657 17.8873 9.4034 18.5001 9.8601 19.0018C9.00368 18.7292 7.80487 18.1813 6.99022 17.6891C6.10279 17.1537 4.62149 16.0496 3.02785 14.7358C2.37504 14.1971 1.7831 13.7755 1.44371 13.6081C1.37161 13.5715 1.36112 13.5356 1.35804 13.524L1.3578 13.524C1.34276 13.4724 1.36707 13.3876 1.42676 13.2862C1.54902 13.074 1.7046 12.9819 1.93104 12.9857C2.30836 12.9959 2.81446 13.2044 3.35194 13.5742ZM10.2163 16.4106L11.1302 16.6428L11.7882 16.4992C12.1969 16.4083 12.9378 16.2229 13.35 16.1076C13.299 16.0996 11.9893 15.8133 10.9944 15.5437C9.22427 15.0549 8.51578 14.8261 6.35939 13.7296C6.15103 13.624 5.95844 13.5221 5.77953 13.4275C5.02226 13.0271 4.51023 12.7563 4.08626 12.8778C3.96185 12.9135 3.84856 12.9915 3.76315 13.0834C3.92165 13.1993 4.36287 13.4871 5.21411 14.0401C7.24031 15.3563 8.59577 15.9988 10.2163 16.4106ZM2.56071 15.2004C1.45136 14.2797 1.01693 14.0196 0.556089 14.0977L0.5563 14.098C0.109598 14.1739 -0.137404 14.8127 0.0802839 15.2919C0.998407 17.3161 4.73847 23.3475 12.7627 25.3866C20.6113 27.381 26.4691 21.4514 28.5264 18.7044C29.3368 18.0139 30.3244 17.4703 31.0394 17.0768C31.582 16.7781 31.9675 16.5659 31.999 16.4417C32.0453 16.2595 30.43 13.7041 27.4421 12.6898C25.5466 12.0461 24.1265 12.1711 22.1662 12.7836C21.5173 12.9863 19.7153 13.8701 17.9814 14.7205C16.4758 15.4589 15.0215 16.1722 14.4178 16.3926C13.2688 16.8127 12.2809 17.066 10.7752 17.3286C10.3386 17.4063 10.0465 17.4839 10.0061 17.5053C9.94225 17.54 9.90693 17.5999 9.89714 17.6879C9.86721 17.9717 10.116 18.4134 10.4898 18.7383C11.4318 19.5651 13.0052 19.8489 15.588 19.6602C16.3292 19.6038 18.0964 19.2468 18.7934 19.0118C19.0381 18.9318 19.4656 18.7595 19.7461 18.6275C20.2513 18.3936 20.3855 18.3837 20.4747 18.4518C20.5999 18.5417 20.5916 18.6584 20.5824 18.7044C20.4829 19.1941 18.5155 19.7621 17.4881 19.9943C14.612 20.6343 11.4538 20.3858 8.82248 19.3124C6.88595 18.5232 5.30583 17.4855 2.56071 15.2004ZM27.7785 15.9028C28.3294 15.9028 28.776 15.4563 28.776 14.9053C28.776 14.3544 28.3294 13.9078 27.7785 13.9078C27.2276 13.9078 26.781 14.3544 26.781 14.9053C26.781 15.4563 27.2276 15.9028 27.7785 15.9028Z" fill="url(#paint1_linear_198_580)"/>
<defs>
<linearGradient id="paint0_linear_198_580" x1="10.5" y1="3.00006" x2="10.5" y2="20.5001" gradientUnits="userSpaceOnUse">
<stop stop-color="#B7D2FF"/>
<stop offset="0.740967" stop-color="#2659B5"/>
<stop offset="1" stop-color="#18366E"/>
</linearGradient>
<linearGradient id="paint1_linear_198_580" x1="32.5" y1="15.5001" x2="9" y2="16.5001" gradientUnits="userSpaceOnUse">
<stop stop-color="#F8D648"/>
<stop offset="0.116911" stop-color="#B7D2FF"/>
<stop offset="0.52241" stop-color="#2659B5"/>
<stop offset="1" stop-color="#17356D"/>
</linearGradient>
</defs>
</svg>
