<svg width="24" height="24" viewBox="0 0 24 24" fill="none" xmlns="http://www.w3.org/2000/svg">
<path d="M1 18C1 15.75 4 15.75 5.5 14.25C6.25 13.5 4 13.5 4 9.75C4 7.25025 4.99975 6 7 6C9.00025 6 10 7.25025 10 9.75C10 13.5 7.75 13.5 8.5 14.25C10 15.75 13 15.75 13 18" stroke="#717781" stroke-linecap="round"/>
<path d="M12.5 16C13.067 15.6092 13.2977 15.571 14.002 15.2318C14.5527 14.9665 15.084 14.6659 15.4999 14.25C16.2499 13.5 13.9999 13.5 13.9999 9.75C13.9999 7.25025 14.9996 6 16.9999 6C19.0001 6 19.9999 7.25025 19.9999 9.75C19.9999 13.5 17.7499 13.5 18.4999 14.25C19.9999 15.75 22.9999 15.75 22.9999 18" stroke="#717781" stroke-linecap="round"/>
</svg>
