<svg width="32" height="32" viewBox="0 0 32 32" fill="none" xmlns="http://www.w3.org/2000/svg">
<path fill-rule="evenodd" clip-rule="evenodd" d="M15.9998 29.3333C23.3636 29.3333 29.3332 23.3638 29.3332 16C29.3332 8.63616 23.3636 2.66663 15.9998 2.66663C8.63604 2.66663 2.6665 8.63616 2.6665 16C2.6665 23.3638 8.63604 29.3333 15.9998 29.3333Z" stroke="#2659B5"/>
<path d="M7.3335 26C7.3335 26 12.0002 24 13.3335 22.6667C14.6668 21.3333 10.6668 21.3333 10.6668 14.6667C10.6668 8 16.0002 8 16.0002 8C16.0002 8 21.3335 8 21.3335 14.6667C21.3335 21.3333 17.3335 21.3333 18.6668 22.6667C20.0002 24 24.6668 26 24.6668 26" stroke="#2659B5" stroke-linecap="round"/>
</svg>
